<svg width="27" height="24" viewBox="0 0 27 24" fill="none" xmlns="http://www.w3.org/2000/svg">
<path d="M19.4875 6.25551C19.3622 6.15632 19.2185 6.08293 19.0647 6.03956C18.9109 5.99619 18.75 5.98371 18.5914 6.00284C18.4327 6.02197 18.2795 6.07233 18.1404 6.15101C18.0013 6.22968 17.8792 6.33513 17.781 6.46125L9.30941 17.3533L5.15831 12.2946C5.06094 12.165 4.93853 12.0562 4.79833 11.9748C4.65813 11.8934 4.50301 11.8411 4.34218 11.8208C4.18134 11.8005 4.01807 11.8127 3.86205 11.8567C3.70603 11.9007 3.56045 11.9757 3.43394 12.077C3.30743 12.1784 3.20258 12.3042 3.1256 12.4468C3.04863 12.5895 3.0011 12.7462 2.98584 12.9076C2.97058 13.069 2.98791 13.2318 3.03678 13.3863C3.08565 13.5409 3.16508 13.6841 3.27035 13.8074L8.31702 20.0764C8.43093 20.2168 8.57484 20.3299 8.7382 20.4074C8.90156 20.4849 9.0802 20.5248 9.261 20.5242C9.45292 20.5327 9.64412 20.4955 9.81879 20.4155C9.99346 20.3355 10.1466 20.2151 10.2655 20.0643L19.7416 7.96194C19.8382 7.83369 19.9084 7.68749 19.9479 7.53187C19.9875 7.37624 19.9956 7.21431 19.972 7.05549C19.9483 6.89667 19.8933 6.74415 19.8101 6.60681C19.7269 6.46946 19.6173 6.35005 19.4875 6.25551V6.25551Z" fill="#00A6E3"/>
<path d="M25.5387 6.25551C25.4134 6.15632 25.2698 6.08293 25.116 6.03956C24.9622 5.99619 24.8013 5.98371 24.6426 6.00284C24.484 6.02197 24.3307 6.07233 24.1916 6.15101C24.0525 6.22968 23.9304 6.33513 23.8323 6.46125L15.3607 17.3533L14.6224 16.4457L13.0975 18.4063L14.4288 20.0643C14.5427 20.2047 14.6866 20.3178 14.85 20.3953C15.0133 20.4728 15.192 20.5127 15.3728 20.5121C15.5546 20.5112 15.7338 20.4694 15.8972 20.3898C16.0607 20.3102 16.204 20.1948 16.3168 20.0522L25.7929 7.94984C25.8876 7.82196 25.9562 7.67665 25.9947 7.52224C26.0332 7.36783 26.0408 7.20734 26.0172 7.04996C25.9936 6.89258 25.9392 6.74141 25.8571 6.60508C25.775 6.46876 25.6668 6.34997 25.5387 6.25551V6.25551Z" fill="#00A6E3"/>
<path d="M9.91431 14.545L11.4755 12.5844L11.2335 12.2939C11.1379 12.1615 11.0166 12.0499 10.8767 11.9656C10.7369 11.8814 10.5815 11.8263 10.4198 11.8037C10.2581 11.781 10.0935 11.7914 9.93594 11.834C9.77836 11.8767 9.63103 11.9508 9.50283 12.0519C9.37851 12.1517 9.27515 12.2752 9.1987 12.4151C9.12224 12.5551 9.0742 12.7088 9.05733 12.8673C9.04046 13.0259 9.05509 13.1863 9.1004 13.3392C9.1457 13.4921 9.22077 13.6345 9.3213 13.7583L9.91431 14.545Z" fill="#00A6E3"/>
</svg>
