<svg width="24" height="24" viewBox="0 0 24 24" fill="none" xmlns="http://www.w3.org/2000/svg">
<path d="M19.507 6.26137C19.3817 6.16218 19.238 6.08879 19.0842 6.04542C18.9304 6.00205 18.7696 5.98957 18.6109 6.0087C18.4523 6.02783 18.299 6.07819 18.1599 6.15686C18.0208 6.23554 17.8987 6.34099 17.8006 6.46711L9.32894 17.3592L5.17784 12.3004C5.08048 12.1708 4.95806 12.0621 4.81786 11.9807C4.67766 11.8993 4.52254 11.8469 4.36171 11.8266C4.20087 11.8063 4.0376 11.8186 3.88158 11.8626C3.72556 11.9066 3.57998 11.9815 3.45347 12.0829C3.32696 12.1843 3.22211 12.31 3.14513 12.4527C3.06816 12.5954 3.02063 12.752 3.00537 12.9134C2.99011 13.0748 3.00744 13.2376 3.05631 13.3922C3.10518 13.5468 3.18461 13.6899 3.28988 13.8132L8.33655 20.0822C8.45046 20.2226 8.59438 20.3357 8.75773 20.4132C8.92109 20.4907 9.09973 20.5306 9.28053 20.53C9.47245 20.5386 9.66365 20.5013 9.83832 20.4214C10.013 20.3414 10.1661 20.221 10.285 20.0701L19.7612 7.9678C19.8578 7.83955 19.9279 7.69335 19.9674 7.53773C20.007 7.3821 20.0152 7.22017 19.9915 7.06135C19.9679 6.90253 19.9128 6.75001 19.8297 6.61266C19.7465 6.47532 19.6368 6.3559 19.507 6.26137V6.26137Z" fill="#00A6E3"/>
</svg>
